<svg xmlns="http://www.w3.org/2000/svg" viewBox="0 0 1200 750" role="img" aria-labelledby="title desc">
<title id="title">The $87k door failed; $82–83k held</title>
<desc id="desc">Daily Coinbase BTC-USD candles from September 15 through September 25, 2026. The chart shows the rally to 87.4 thousand, the September 23 rejection, and the September 24 test of 82.7 thousand.</desc>
<rect width="1200" height="750" fill="#0e1721"/>
<style>text{font-family:Inter,ui-sans-serif,system-ui,-apple-system,BlinkMacSystemFont,"Segoe UI",sans-serif}.title{font-size:28px;font-weight:700;fill:#e6edf3}.sub{font-size:15px;fill:#9eb0c1}.axis{font-size:13px;fill:#9eb0c1}.note{font-size:12px;fill:#9eb0c1}.label{font-size:13px;font-weight:600;fill:#e6edf3}</style>
<text x="56" y="48" class="title">The $87k door failed; $82–83k held</text>
<text x="56" y="76" class="sub">Daily UTC candles · 26 Sep 2026 · 12:01 a.m. CDT / 05:01 UTC · last completed day is 25 Sep</text>
<rect x="94.0" y="108.0" width="1015.0" height="510.0" rx="8" fill="#122131" stroke="#2a3b4d"/>
<line x1="94.0" y1="574.3" x2="1109.0" y2="574.3" stroke="#2a3b4d"/>
<text x="82.0" y="578.3" class="axis" text-anchor="end">$58k</text>
<line x1="94.0" y1="472.3" x2="1109.0" y2="472.3" stroke="#2a3b4d"/>
<text x="82.0" y="476.3" class="axis" text-anchor="end">$65k</text>
<line x1="94.0" y1="370.3" x2="1109.0" y2="370.3" stroke="#2a3b4d"/>
<text x="82.0" y="374.3" class="axis" text-anchor="end">$72k</text>
<line x1="94.0" y1="297.4" x2="1109.0" y2="297.4" stroke="#2a3b4d"/>
<text x="82.0" y="301.4" class="axis" text-anchor="end">$77k</text>
<line x1="94.0" y1="224.6" x2="1109.0" y2="224.6" stroke="#2a3b4d"/>
<text x="82.0" y="228.6" class="axis" text-anchor="end">$82k</text>
<line x1="94.0" y1="151.7" x2="1109.0" y2="151.7" stroke="#2a3b4d"/>
<text x="82.0" y="155.7" class="axis" text-anchor="end">$87k</text>
<line x1="94.0" y1="108.0" x2="94.0" y2="618.0" stroke="#2a3b4d" opacity="0.42"/>
<text x="94.0" y="643.0" class="axis" text-anchor="middle">09/15</text>
<line x1="195.5" y1="108.0" x2="195.5" y2="618.0" stroke="#2a3b4d" opacity="0.42"/>
<text x="195.5" y="643.0" class="axis" text-anchor="middle">09/16</text>
<line x1="297.0" y1="108.0" x2="297.0" y2="618.0" stroke="#2a3b4d" opacity="0.42"/>
<text x="297.0" y="643.0" class="axis" text-anchor="middle">09/17</text>
<line x1="398.5" y1="108.0" x2="398.5" y2="618.0" stroke="#2a3b4d" opacity="0.42"/>
<text x="398.5" y="643.0" class="axis" text-anchor="middle">09/18</text>
<line x1="500.0" y1="108.0" x2="500.0" y2="618.0" stroke="#2a3b4d" opacity="0.42"/>
<text x="500.0" y="643.0" class="axis" text-anchor="middle">09/19</text>
<line x1="601.5" y1="108.0" x2="601.5" y2="618.0" stroke="#2a3b4d" opacity="0.42"/>
<text x="601.5" y="643.0" class="axis" text-anchor="middle">09/20</text>
<line x1="703.0" y1="108.0" x2="703.0" y2="618.0" stroke="#2a3b4d" opacity="0.42"/>
<text x="703.0" y="643.0" class="axis" text-anchor="middle">09/21</text>
<line x1="804.5" y1="108.0" x2="804.5" y2="618.0" stroke="#2a3b4d" opacity="0.42"/>
<text x="804.5" y="643.0" class="axis" text-anchor="middle">09/22</text>
<line x1="906.0" y1="108.0" x2="906.0" y2="618.0" stroke="#2a3b4d" opacity="0.42"/>
<text x="906.0" y="643.0" class="axis" text-anchor="middle">09/23</text>
<line x1="1007.5" y1="108.0" x2="1007.5" y2="618.0" stroke="#2a3b4d" opacity="0.42"/>
<text x="1007.5" y="643.0" class="axis" text-anchor="middle">09/24</text>
<line x1="1109.0" y1="108.0" x2="1109.0" y2="618.0" stroke="#2a3b4d" opacity="0.42"/>
<text x="1109.0" y="643.0" class="axis" text-anchor="middle">09/25</text>
<line x1="94.0" y1="574.3" x2="1109.0" y2="574.3" stroke="#9eb0c1" stroke-width="1.5" stroke-dasharray="5 5"/>
<text x="1119.0" y="578.3" class="label">$57.7k low</text>
<line x1="94.0" y1="370.3" x2="1109.0" y2="370.3" stroke="#e8d36c" stroke-width="1.5" stroke-dasharray="7 5"/>
<text x="1119.0" y="374.3" class="label">$71.7–72.3k</text>
<line x1="94.0" y1="297.4" x2="1109.0" y2="297.4" stroke="#f1b56f" stroke-width="1.5" stroke-dasharray="7 5"/>
<text x="1119.0" y="301.4" class="label">$77k</text>
<line x1="94.0" y1="224.6" x2="1109.0" y2="224.6" stroke="#7ac7d4" stroke-width="1.5" stroke-dasharray="7 5"/>
<text x="1119.0" y="228.6" class="label">$82k</text>
<rect x="94.0" y="312.0" width="1015.0" height="29.1" fill="#e8d36c" opacity="0.10"/>
<text x="102.0" y="305.0" class="label" fill="#e8d36c">$74–76k process band</text>
<line x1="94.0" y1="279.3" x2="94.0" y2="328.2" stroke="#ef8d8d" stroke-width="2"/>
<rect x="75.0" y="280.3" width="38" height="37.8" fill="#ef8d8d" opacity="0.92" stroke="#ef8d8d"/>
<line x1="195.5" y1="304.7" x2="195.5" y2="327.9" stroke="#79d3a3" stroke-width="2"/>
<rect x="176.5" y="309.9" width="38" height="8.2" fill="#79d3a3" opacity="0.92" stroke="#79d3a3"/>
<line x1="297.0" y1="295.9" x2="297.0" y2="313.1" stroke="#79d3a3" stroke-width="2"/>
<rect x="278.0" y="306.9" width="38" height="3.0" fill="#79d3a3" opacity="0.92" stroke="#79d3a3"/>
<line x1="398.5" y1="233.5" x2="398.5" y2="309.0" stroke="#79d3a3" stroke-width="2"/>
<rect x="379.5" y="241.0" width="38" height="66.0" fill="#79d3a3" opacity="0.92" stroke="#79d3a3"/>
<line x1="500.0" y1="225.7" x2="500.0" y2="241.7" stroke="#79d3a3" stroke-width="2"/>
<rect x="481.0" y="235.7" width="38" height="5.2" fill="#79d3a3" opacity="0.92" stroke="#79d3a3"/>
<line x1="601.5" y1="232.3" x2="601.5" y2="252.5" stroke="#ef8d8d" stroke-width="2"/>
<rect x="582.5" y="235.7" width="38" height="3.0" fill="#ef8d8d" opacity="0.92" stroke="#ef8d8d"/>
<line x1="703.0" y1="145.9" x2="703.0" y2="241.5" stroke="#79d3a3" stroke-width="2"/>
<rect x="684.0" y="157.6" width="38" height="79.2" fill="#79d3a3" opacity="0.92" stroke="#79d3a3"/>
<line x1="804.5" y1="155.6" x2="804.5" y2="180.0" stroke="#ef8d8d" stroke-width="2"/>
<rect x="785.5" y="157.6" width="38" height="5.8" fill="#ef8d8d" opacity="0.92" stroke="#ef8d8d"/>
<line x1="906.0" y1="147.6" x2="906.0" y2="202.5" stroke="#ef8d8d" stroke-width="2"/>
<rect x="887.0" y="163.4" width="38" height="26.5" fill="#ef8d8d" opacity="0.92" stroke="#ef8d8d"/>
<line x1="1007.5" y1="181.9" x2="1007.5" y2="214.2" stroke="#79d3a3" stroke-width="2"/>
<rect x="988.5" y="189.8" width="38" height="3.0" fill="#79d3a3" opacity="0.92" stroke="#79d3a3"/>
<line x1="1109.0" y1="177.2" x2="1109.0" y2="208.7" stroke="#ef8d8d" stroke-width="2"/>
<rect x="1090.0" y="189.8" width="38" height="4.3" fill="#ef8d8d" opacity="0.92" stroke="#ef8d8d"/>
<line x1="703.0" y1="108.0" x2="703.0" y2="618.0" stroke="#7ac7d4" stroke-width="1.5" stroke-dasharray="4 5"/>
<text x="713.0" y="133.0" class="label" fill="#7ac7d4">87.4k high</text>
<line x1="1007.5" y1="108.0" x2="1007.5" y2="618.0" stroke="#ef8d8d" stroke-width="1.5" stroke-dasharray="4 5"/>
<text x="1017.5" y="198.2" class="label" fill="#ef8d8d">82.7k test</text>
<circle cx="1109.0" cy="195.8" r="6" fill="#0e1721" stroke="#f1b56f" stroke-width="3"/>
<text x="1097.0" y="182.8" class="label" text-anchor="end">live $84.0k</text>
<text x="104.0" y="703" class="note">25 Sep completed close: $84,093 · 24 Sep low: $82,709 · 21 Sep high: $87,397 · the 26 Sep UTC candle is partial.</text>
<text x="1109.0" y="728" class="note" text-anchor="end">Source: Coinbase Exchange BTC-USD candles · retrieved 26 Sep 2026 · 12:01 a.m. CDT / 05:01 UTC</text>
</svg>
