<svg xmlns="http://www.w3.org/2000/svg" viewBox="0 0 1200 840" role="img" aria-labelledby="title desc">
<title id="title">Leverage rebuilt, then began to come out</title>
<desc id="desc">Coinbase Bitcoin closing price is shown with OKX BTC-USDT perpetual open interest and average realized funding per eight hours. September 23 is a venue-specific deleveraging snapshot.</desc>
<rect width="1200" height="840" fill="#0e1721"/>
<style>text{font-family:Inter,ui-sans-serif,system-ui,-apple-system,BlinkMacSystemFont,"Segoe UI",sans-serif}.title{font-size:28px;font-weight:700;fill:#e6edf3}.sub{font-size:15px;fill:#9eb0c1}.axis{font-size:13px;fill:#9eb0c1}.note{font-size:12px;fill:#9eb0c1}.label{font-size:13px;font-weight:600;fill:#e6edf3}</style>
<text x="56" y="48" class="title">Leverage rebuilt, then began to come out</text>
<text x="56" y="76" class="sub">Daily UTC candles · 23 Sep 2026 · 21:45 CDT / 24 Sep · 02:45 UTC · last completed day is 23 Sep</text>
<rect x="94.0" y="105.0" width="1015.0" height="185.0" rx="8" fill="#122131" stroke="#2a3b4d"/>
<rect x="94.0" y="330.0" width="1015.0" height="175.0" rx="8" fill="#122131" stroke="#2a3b4d"/>
<rect x="94.0" y="545.0" width="1015.0" height="180.0" rx="8" fill="#122131" stroke="#2a3b4d"/>
<line x1="94.0" y1="277.7" x2="1109.0" y2="277.7" stroke="#2a3b4d"/>
<text x="82.0" y="281.7" class="axis" text-anchor="end">$75k</text>
<line x1="94.0" y1="216.0" x2="1109.0" y2="216.0" stroke="#2a3b4d"/>
<text x="82.0" y="220.0" class="axis" text-anchor="end">$80k</text>
<line x1="94.0" y1="154.3" x2="1109.0" y2="154.3" stroke="#2a3b4d"/>
<text x="82.0" y="158.3" class="axis" text-anchor="end">$85k</text>
<line x1="94.0" y1="105.0" x2="1109.0" y2="105.0" stroke="#2a3b4d"/>
<text x="82.0" y="109.0" class="axis" text-anchor="end">$89k</text>
<line x1="94.0" y1="487.5" x2="1109.0" y2="487.5" stroke="#2a3b4d"/>
<text x="82.0" y="491.5" class="axis" text-anchor="end">$2.0B</text>
<line x1="94.0" y1="417.5" x2="1109.0" y2="417.5" stroke="#2a3b4d"/>
<text x="82.0" y="421.5" class="axis" text-anchor="end">$2.4B</text>
<line x1="94.0" y1="347.5" x2="1109.0" y2="347.5" stroke="#2a3b4d"/>
<text x="82.0" y="351.5" class="axis" text-anchor="end">$2.8B</text>
<line x1="94.0" y1="725.0" x2="1109.0" y2="725.0" stroke="#2a3b4d"/>
<text x="82.0" y="729.0" class="axis" text-anchor="end">0.000%</text>
<line x1="94.0" y1="665.0" x2="1109.0" y2="665.0" stroke="#2a3b4d"/>
<text x="82.0" y="669.0" class="axis" text-anchor="end">0.004%</text>
<line x1="94.0" y1="605.0" x2="1109.0" y2="605.0" stroke="#2a3b4d"/>
<text x="82.0" y="609.0" class="axis" text-anchor="end">0.008%</text>
<line x1="94.0" y1="545.0" x2="1109.0" y2="545.0" stroke="#2a3b4d"/>
<text x="82.0" y="549.0" class="axis" text-anchor="end">0.012%</text>
<line x1="94.0" y1="545.0" x2="94.0" y2="725.0" stroke="#2a3b4d" opacity="0.42"/>
<text x="94.0" y="750.0" class="axis" text-anchor="middle">09/15</text>
<line x1="220.9" y1="545.0" x2="220.9" y2="725.0" stroke="#2a3b4d" opacity="0.42"/>
<text x="220.9" y="750.0" class="axis" text-anchor="middle">09/16</text>
<line x1="347.8" y1="545.0" x2="347.8" y2="725.0" stroke="#2a3b4d" opacity="0.42"/>
<text x="347.8" y="750.0" class="axis" text-anchor="middle">09/17</text>
<line x1="474.6" y1="545.0" x2="474.6" y2="725.0" stroke="#2a3b4d" opacity="0.42"/>
<text x="474.6" y="750.0" class="axis" text-anchor="middle">09/18</text>
<line x1="601.5" y1="545.0" x2="601.5" y2="725.0" stroke="#2a3b4d" opacity="0.42"/>
<text x="601.5" y="750.0" class="axis" text-anchor="middle">09/19</text>
<line x1="728.4" y1="545.0" x2="728.4" y2="725.0" stroke="#2a3b4d" opacity="0.42"/>
<text x="728.4" y="750.0" class="axis" text-anchor="middle">09/20</text>
<line x1="855.2" y1="545.0" x2="855.2" y2="725.0" stroke="#2a3b4d" opacity="0.42"/>
<text x="855.2" y="750.0" class="axis" text-anchor="middle">09/21</text>
<line x1="982.1" y1="545.0" x2="982.1" y2="725.0" stroke="#2a3b4d" opacity="0.42"/>
<text x="982.1" y="750.0" class="axis" text-anchor="middle">09/22</text>
<line x1="1109.0" y1="545.0" x2="1109.0" y2="725.0" stroke="#2a3b4d" opacity="0.42"/>
<text x="1109.0" y="750.0" class="axis" text-anchor="middle">09/23</text>
<text x="106" y="129" class="label">BTC-USD close</text>
<text x="106" y="354" class="label">OKX BTC-USDT-SWAP open interest · US$ billions</text>
<text x="106" y="569" class="label">OKX realized funding · average per 8 hours</text>
<rect x="62.4" y="653.7" width="63.2" height="71.3" fill="#f1b56f" opacity="0.88" rx="3"/>
<text x="94.0" y="645.7" class="note" text-anchor="middle">0.005%</text>
<rect x="189.3" y="664.1" width="63.2" height="60.9" fill="#f1b56f" opacity="0.88" rx="3"/>
<text x="220.9" y="656.1" class="note" text-anchor="middle">0.004%</text>
<rect x="316.2" y="612.0" width="63.2" height="113.0" fill="#f1b56f" opacity="0.88" rx="3"/>
<text x="347.8" y="604.0" class="note" text-anchor="middle">0.008%</text>
<rect x="443.0" y="612.2" width="63.2" height="112.8" fill="#f1b56f" opacity="0.88" rx="3"/>
<text x="474.6" y="604.2" class="note" text-anchor="middle">0.008%</text>
<rect x="569.9" y="575.0" width="63.2" height="150.0" fill="#f1b56f" opacity="0.88" rx="3"/>
<text x="601.5" y="567.0" class="note" text-anchor="middle">0.010%</text>
<rect x="696.8" y="585.7" width="63.2" height="139.3" fill="#f1b56f" opacity="0.88" rx="3"/>
<text x="728.4" y="577.7" class="note" text-anchor="middle">0.009%</text>
<rect x="823.7" y="618.6" width="63.2" height="106.4" fill="#f1b56f" opacity="0.88" rx="3"/>
<text x="855.2" y="610.6" class="note" text-anchor="middle">0.007%</text>
<rect x="950.5" y="597.8" width="63.2" height="127.2" fill="#f1b56f" opacity="0.88" rx="3"/>
<text x="982.1" y="589.8" class="note" text-anchor="middle">0.008%</text>
<rect x="1077.4" y="648.9" width="63.2" height="76.1" fill="#f1b56f" opacity="0.88" rx="3"/>
<text x="1109.0" y="640.9" class="note" text-anchor="middle">0.005%</text>
<polyline points="94.0,270.5 220.9,263.5 347.8,261.0 474.6,205.2 601.5,200.8 728.4,201.7 855.2,134.7 982.1,139.6 1109.0,162.0" fill="none" stroke="#7ac7d4" stroke-width="3" stroke-linejoin="round" stroke-linecap="round"/>
<polyline points="94.0,463.2 220.9,451.1 347.8,414.6 474.6,394.9 601.5,404.6 728.4,371.8 855.2,380.0 982.1,385.9 1109.0,402.7" fill="none" stroke="#79d3a3" stroke-width="3" stroke-linejoin="round" stroke-linecap="round"/>
<circle cx="94.0" cy="270.5" r="3.5" fill="#7ac7d4"/>
<circle cx="220.9" cy="263.5" r="3.5" fill="#7ac7d4"/>
<circle cx="347.8" cy="261.0" r="3.5" fill="#7ac7d4"/>
<circle cx="474.6" cy="205.2" r="3.5" fill="#7ac7d4"/>
<circle cx="601.5" cy="200.8" r="3.5" fill="#7ac7d4"/>
<circle cx="728.4" cy="201.7" r="3.5" fill="#7ac7d4"/>
<circle cx="855.2" cy="134.7" r="3.5" fill="#7ac7d4"/>
<circle cx="982.1" cy="139.6" r="3.5" fill="#7ac7d4"/>
<circle cx="1109.0" cy="162.0" r="3.5" fill="#7ac7d4"/>
<circle cx="94.0" cy="463.2" r="3.5" fill="#79d3a3"/>
<circle cx="220.9" cy="451.1" r="3.5" fill="#79d3a3"/>
<circle cx="347.8" cy="414.6" r="3.5" fill="#79d3a3"/>
<circle cx="474.6" cy="394.9" r="3.5" fill="#79d3a3"/>
<circle cx="601.5" cy="404.6" r="3.5" fill="#79d3a3"/>
<circle cx="728.4" cy="371.8" r="3.5" fill="#79d3a3"/>
<circle cx="855.2" cy="380.0" r="3.5" fill="#79d3a3"/>
<circle cx="982.1" cy="385.9" r="3.5" fill="#79d3a3"/>
<circle cx="1109.0" cy="402.7" r="3.5" fill="#79d3a3"/>
<line x1="1109.0" y1="105.0" x2="1109.0" y2="725.0" stroke="#ef8d8d" stroke-width="1.5" stroke-dasharray="4 5"/>
<text x="1099.0" y="147.0" class="label" text-anchor="end" fill="#ef8d8d">23 Sep long-liq flush</text>
<text x="104.0" y="791" class="note">OKX OI: $2.66B on 20 Sep → $2.48B on 23 Sep; still above $2.14B on 15 Sep.</text>
<text x="104.0" y="812" class="note">Funding stayed positive but cooled to 0.0051% average on 23 Sep; this is not a market-wide total.</text>
<text x="1109.0" y="818" class="note" text-anchor="end">Sources: Coinbase Exchange + OKX public APIs + secondary liquidation reports · 23 Sep 2026 · 21:45 CDT / 24 Sep · 02:45 UTC</text>
</svg>
